<!--<?xml version="1.0" standalone="no"?>-->
<svg viewBox="0 0 200 200" xmlns="http://www.w3.org/2000/svg">
  <mask id="mask0" mask-type="alpha">
    <path fill="#000000" d="M32.2,-59.7C42.7,-49.7,52.8,-43,61.7,-33.6C70.7,-24.2,78.5,-12.1,78.1,-0.2C77.8,11.7,69.2,23.3,60.1,32.5C51,41.7,41.4,48.3,31.3,58.7C21.2,69.2,10.6,83.3,-2.4,87.4C-15.4,91.6,-30.7,85.7,-45,77.7C-59.3,69.7,-72.4,59.6,-76.5,46.3C-80.6,32.9,-75.7,16.5,-75.7,0C-75.8,-16.6,-80.9,-33.1,-74.7,-42.8C-68.5,-52.5,-51.1,-55.4,-36.7,-63.1C-22.4,-70.9,-11.2,-83.5,-0.2,-83.2C10.9,-82.9,21.7,-69.7,32.2,-59.7Z" transform="translate(100 100)" />
  </mask>
  <g mask="url(#mask0)">
    <path fill="#000000" d="M32.2,-59.7C42.7,-49.7,52.8,-43,61.7,-33.6C70.7,-24.2,78.5,-12.1,78.1,-0.2C77.8,11.7,69.2,23.3,60.1,32.5C51,41.7,41.4,48.3,31.3,58.7C21.2,69.2,10.6,83.3,-2.4,87.4C-15.4,91.6,-30.7,85.7,-45,77.7C-59.3,69.7,-72.4,59.6,-76.5,46.3C-80.6,32.9,-75.7,16.5,-75.7,0C-75.8,-16.6,-80.9,-33.1,-74.7,-42.8C-68.5,-52.5,-51.1,-55.4,-36.7,-63.1C-22.4,-70.9,-11.2,-83.5,-0.2,-83.2C10.9,-82.9,21.7,-69.7,32.2,-59.7Z" transform="translate(100 100)" />
    <image xlink:href="">  
  </g>
</svg>
